<?xml version="1.0" encoding="UTF-8"?>
<svg version="1.1" xmlns="http://www.w3.org/2000/svg" width="512" height="512">
<path d="M0 0 C0.78166637 -0.00594224 1.56333273 -0.01188449 2.36868596 -0.0180068 C4.99642367 -0.03539486 7.62397929 -0.0383984 10.25177002 -0.04138184 C12.13246043 -0.05063728 14.01314709 -0.06068647 15.89382935 -0.07147217 C21.00965958 -0.09773457 26.1254373 -0.11061301 31.24132442 -0.11949348 C34.43698523 -0.12535307 37.63263165 -0.13356235 40.82828522 -0.14250183 C50.825172 -0.16985647 60.82202594 -0.18918705 70.81894755 -0.19690561 C82.36177701 -0.20586646 93.90413272 -0.24095799 105.44681811 -0.2989068 C114.36666929 -0.34213438 123.28638716 -0.36231385 132.20634198 -0.36498785 C137.53482847 -0.36708454 142.86286976 -0.37891104 148.19124603 -0.41462708 C153.20484315 -0.44757859 158.21766026 -0.45190554 163.23132706 -0.43434906 C165.069951 -0.43280767 166.90861678 -0.44150284 168.74713516 -0.46126556 C184.37345198 -0.61936537 184.37345198 -0.61936537 188.90667725 3.05966187 C190.90085884 5.34408195 192.52969849 7.68975148 193.61895752 10.5333252 C194.07401672 11.69049042 194.07401672 11.69049042 194.53826904 12.87103271 C194.96347839 14.063909 194.96347839 14.063909 195.39727783 15.28088379 C195.68558472 16.06985046 195.9738916 16.85881714 196.27093506 17.67169189 C197.16307314 20.18524155 198.01232204 22.70975811 198.85040283 25.24182129 C199.30803009 26.6103978 199.30803009 26.6103978 199.77490234 28.00662231 C200.41230539 29.91680542 201.04747334 31.8277357 201.68048096 33.73937988 C202.65224739 36.67087529 203.63367992 39.59901328 204.61602783 42.52697754 C205.23639738 44.39006647 205.85620922 46.25334121 206.47540283 48.11682129 C206.76908752 48.99180267 207.06277222 49.86678406 207.36535645 50.76828003 C207.63273621 51.57987579 207.90011597 52.39147156 208.17559814 53.22766113 C208.53056366 54.29613785 208.53056366 54.29613785 208.8927002 55.38619995 C209.39727783 57.28088379 209.39727783 57.28088379 209.39727783 60.28088379 C210.62565872 60.27200134 211.85403961 60.2631189 213.11964417 60.25396729 C224.72720422 60.17268611 236.3347061 60.11282471 247.94248676 60.0736351 C253.90939052 60.05280962 259.8760635 60.02458397 265.84283447 59.97912598 C271.60705504 59.9354887 277.3710544 59.91170882 283.13542747 59.90137482 C285.32853868 59.89401551 287.52163854 59.87964484 289.71465492 59.85796356 C306.35817155 59.70004371 318.40420829 60.86395643 331.39727783 72.28088379 C339.34172578 80.72646575 344.61621854 90.7605747 344.68780518 102.47619629 C344.69788101 103.51643951 344.69788101 103.51643951 344.7081604 104.57769775 C344.72704793 106.85383402 344.73105932 109.1296742 344.73321533 111.40588379 C344.73964787 112.99719359 344.74637656 114.58850221 344.75338745 116.17980957 C344.76533572 119.50845075 344.76907062 122.83698831 344.7678833 126.16564941 C344.76767983 130.42272925 344.7950217 134.67914365 344.82942772 138.93606567 C344.85170105 142.22012362 344.85572078 145.50402123 344.85466385 148.78814697 C344.85701762 150.35738425 344.86582862 151.92662609 344.88132858 153.49578857 C344.90100611 155.69285382 344.89514612 157.88848109 344.88311768 160.08557129 C344.88596771 161.33322266 344.88881775 162.58087402 344.89175415 163.86633301 C344.17494417 168.81618395 342.16088785 171.90764275 338.22496033 174.97236633 C337.05861809 175.62358711 337.05861809 175.62358711 335.86871338 176.28796387 C334.54593887 177.03223129 334.54593887 177.03223129 333.19644165 177.79153442 C328.44771602 180.31818594 323.67236321 182.77565212 318.85430908 185.16760254 C317.76881271 185.71012161 316.68331635 186.25264069 315.56492615 186.81159973 C313.2740706 187.95552481 310.98224951 189.09751813 308.68951416 190.2376709 C305.26235978 191.94223116 301.83836093 193.65299222 298.41485596 195.36486816 C296.16569336 196.48698658 293.91634963 197.60874202 291.66680908 198.73010254 C290.67945267 199.22322433 289.69209625 199.71634613 288.67481995 200.22441101 C282.62364117 203.230833 276.54414258 206.16826273 270.44178009 209.06910133 C258.64476272 214.67988782 246.9555678 220.47852678 235.30893898 226.39444923 C230.02612695 229.07507779 224.73540753 231.74004305 219.44610596 234.40783691 C212.77672878 237.77264072 206.10988545 241.14221256 199.45123291 244.52819824 C194.00460379 247.29734256 188.55040288 250.0510066 183.09067345 252.79422569 C181.02286826 253.83677282 178.95794458 254.88505569 176.89600563 255.93915749 C174.03746985 257.39961849 171.16971598 258.840133 168.29888916 260.27624512 C167.4517334 260.71498962 166.60457764 261.15373413 165.73175049 261.60577393 C164.95173172 261.99100723 164.17171295 262.37624054 163.36805725 262.77314758 C162.35649173 263.28543521 162.35649173 263.28543521 161.32449055 263.80807209 C159.39727783 264.28088379 159.39727783 264.28088379 157.24724865 263.49499035 C154.9575352 261.99228766 153.8177349 260.34944047 152.27227783 258.09338379 C145.2105195 248.74782277 135.10242547 243.35514268 123.56060791 241.74597168 C117.33244274 241.08652028 111.10744981 241.11859821 104.85040283 241.11291504 C103.56220642 241.10958664 102.27401001 241.10625824 100.94677734 241.10282898 C98.23039919 241.09687531 95.51405267 241.09498514 92.79766846 241.09558105 C89.35428077 241.09568237 85.91110068 241.0820446 82.46776199 241.06480885 C79.13697346 241.05086911 75.80622002 241.05159633 72.47540283 241.05041504 C71.25830627 241.04322952 70.04120972 241.03604401 68.78723145 241.02864075 C52.95677953 241.07022532 39.09000156 243.24108775 27.15509033 254.40197754 C24.2728195 257.48280481 21.78089587 260.80477415 19.39727783 264.28088379 C13.5161966 262.58163861 8.24324179 259.83355409 2.79986572 257.08776855 C1.74353439 256.55894577 0.68720306 256.03012299 -0.40113831 255.48527527 C-3.29209392 254.03711214 -6.18125238 252.58543487 -9.06971812 251.13231397 C-12.1189873 249.5995102 -15.17072374 248.0716351 -18.22224426 246.5433197 C-24.02209512 243.63770565 -29.82006931 240.72836935 -35.61722428 237.81738085 C-45.92634301 232.64076179 -56.23753674 227.46828448 -66.55101782 222.30036205 C-70.72693559 220.20762648 -74.90100274 218.11123098 -79.07463074 216.01393127 C-91.48777891 209.78452548 -103.94585215 203.66821406 -116.49383545 197.71479797 C-124.11752365 194.09502965 -131.68780311 190.36713083 -139.24359131 186.60803223 C-140.88671256 185.79235231 -142.53163603 184.9802947 -144.17816162 184.17150879 C-146.62701996 182.96837714 -149.07042898 181.75477561 -151.51287842 180.53869629 C-152.24096207 180.18340851 -152.96904572 179.82812073 -153.7191925 179.46206665 C-159.37929903 176.61994586 -165.26417275 173.50823163 -167.60272217 167.28088379 C-167.87014771 164.14048767 -167.87014771 164.14048767 -167.89324951 160.39196777 C-167.89996674 159.70679581 -167.90668396 159.02162384 -167.91360474 158.31568909 C-167.93258282 156.05271109 -167.93650987 153.79003016 -167.93865967 151.52697754 C-167.94509161 149.9447874 -167.95182027 148.36259844 -167.95883179 146.78041077 C-167.97080684 143.46079762 -167.97451277 140.1412885 -167.97332764 136.82165527 C-167.97312532 132.59415155 -168.00033497 128.36732669 -168.03487206 124.13998318 C-168.05726261 120.86858644 -168.06116136 117.59734934 -168.06010818 114.32588387 C-168.06244946 112.76915223 -168.07118878 111.2124152 -168.08677292 109.65575981 C-168.2180159 95.18185426 -165.36431312 84.3900926 -155.60272217 73.28088379 C-150.58266589 68.55870171 -144.98653962 64.88627157 -138.60272217 62.28088379 C-137.77444916 61.9385672 -136.94617615 61.59625061 -136.09280396 61.24356079 C-131.56670827 59.99511778 -127.41376287 60.01705871 -122.74188232 60.05383301 C-121.76564911 60.05354095 -120.78941589 60.0532489 -119.78359985 60.052948 C-116.5695698 60.05433692 -113.35577403 60.06987767 -110.14178467 60.08557129 C-107.90833666 60.08930297 -105.674887 60.09214921 -103.44143677 60.09414673 C-97.57242283 60.10177095 -91.7035084 60.12140912 -85.83453369 60.14355469 C-79.84191229 60.16403916 -73.84927476 60.17315401 -67.85662842 60.18322754 C-56.1052827 60.20465608 -44.35401072 60.23877748 -32.60272217 60.28088379 C-32.41081865 59.38929408 -32.41081865 59.38929408 -32.2150383 58.47969246 C-31.33462365 54.44380831 -30.44864127 50.45156947 -29.18572998 46.51477051 C-28.92495667 45.69717255 -28.66418335 44.87957458 -28.39550781 44.03720093 C-27.97987579 42.76176926 -27.97987579 42.76176926 -27.55584717 41.46057129 C-27.11532013 40.10622482 -27.11532013 40.10622482 -26.66589355 38.72451782 C-26.04651857 36.82953362 -25.42451271 34.93540746 -24.79998779 33.04211426 C-23.85457154 30.16151866 -22.93183894 27.27423829 -22.00897217 24.38635254 C-21.40099019 22.53563392 -20.79166016 20.68535749 -20.18084717 18.83557129 C-19.91185608 17.98123505 -19.64286499 17.1268988 -19.36572266 16.24667358 C-16.00813311 6.28262524 -10.93143534 -0.02582486 0 0 Z M9.39727783 30.28088379 C3.24652043 45.01300274 3.24652043 45.01300274 0.39727783 60.28088379 C58.47727783 60.28088379 116.55727783 60.28088379 176.39727783 60.28088379 C174.13245736 50.08919167 170.69879264 40.1854282 167.39727783 30.28088379 C115.25727783 30.28088379 63.11727783 30.28088379 9.39727783 30.28088379 Z " fill="#000000" transform="translate(167.60272216796875,30.7191162109375)"/>
<path d="M0 0 C20.30744003 9.57437251 20.30744003 9.57437251 29.23730469 14.06982422 C30.10046295 14.50213348 30.96362122 14.93444275 31.85293579 15.37985229 C33.68371368 16.29710932 35.51403068 17.21528682 37.34389496 18.13436508 C40.26595593 19.60193863 43.18937198 21.06678329 46.11309814 22.53103638 C53.37035853 26.16625499 60.62541148 29.80587029 67.88049316 33.44543457 C74.03833865 36.53435108 80.19707288 39.6214831 86.35691071 42.70642471 C89.19035335 44.12630781 92.02254844 45.5486556 94.85467529 46.97116089 C110.24049617 54.68599197 125.69936736 62.26754265 141.3801403 69.36743546 C144.26125917 70.67890135 147.12498667 72.0259695 149.98681641 73.37890625 C151.43746172 74.05470356 152.89553842 74.71473051 154.35986328 75.36035156 C166.67189358 80.81385833 166.67189358 80.81385833 169.98242188 86.26318359 C171.2890625 89.734375 171.2890625 89.734375 172.14697266 92.98339844 C174.50310263 101.31549402 181.90230832 107.51724736 189 112 C200.17156007 117.87976846 212.50291678 118.30692281 224.875 118.265625 C226.80448486 118.26849518 226.80448486 118.26849518 228.77294922 118.27142334 C231.47563571 118.27434571 234.17818861 118.27017135 236.88085938 118.26074219 C240.30970909 118.24934931 243.73824546 118.25592448 247.16708374 118.26788712 C250.48641289 118.27693583 253.80566201 118.27056263 257.125 118.265625 C258.33784668 118.26967346 259.55069336 118.27372192 260.80029297 118.27789307 C276.37639817 118.19335775 290.30691978 115.95273622 302 105 C306.60664115 100.26359431 309.10760645 95.95404506 310.98486328 89.61962891 C313.41741406 83.16756837 316.12619089 80.73942707 322.20968628 77.69271851 C323.29291168 77.20373077 324.37613708 76.71474304 325.4921875 76.2109375 C326.6291507 75.65612701 327.76611389 75.10131653 328.93753052 74.5296936 C331.95719297 73.06571719 334.98947197 71.6407952 338.03503418 70.23236084 C341.04723643 68.82877811 344.03586542 67.37679308 347.02734375 65.9296875 C351.51106748 63.76939602 356.00374004 61.63122587 360.51123047 59.52099609 C377.13439157 51.7226473 393.66059706 43.7442951 410.0688591 35.50315285 C412.99359833 34.03423787 415.91969501 32.56805642 418.84609985 31.10246277 C425.02355815 28.00811631 431.19938868 24.91053058 437.375 21.8125 C444.61710673 18.17961813 451.85988648 14.54809028 459.10432816 10.91986656 C461.98861743 9.47448042 464.87169538 8.02669791 467.75473022 6.57881165 C469.49967725 5.7045244 471.24467939 4.83034716 472.98974609 3.95629883 C473.79158325 3.55279709 474.59342041 3.14929535 475.41955566 2.73356628 C480.88615699 0 480.88615699 0 482 0 C482.09351696 26.40828334 482.16401536 52.81654179 482.20724869 79.22495747 C482.22785786 91.48734898 482.25594714 103.74963749 482.30175781 116.01196289 C482.34167578 126.70207721 482.36744477 137.39211692 482.37635398 148.0823037 C482.38156028 153.74063015 482.39376297 159.39874318 482.42292023 165.05700111 C482.45016756 170.38805353 482.45842613 175.71880559 482.45243073 181.04992104 C482.45352679 183.00134923 482.46142486 184.95278797 482.4768219 186.90415573 C482.59388082 202.51171895 480.67380867 213.85263899 470 226 C461.58297346 233.91758692 451.54447336 239.24402661 439.85808277 239.25726891 C439.15884531 239.26077498 438.45960785 239.26428105 437.73918137 239.26789337 C435.39650127 239.27719607 433.05407037 239.27228702 430.71138 239.26742554 C429.01462148 239.27116238 427.31786469 239.27576403 425.62111062 239.28115618 C420.95843532 239.2933976 416.29583172 239.29312436 411.63314402 239.29076743 C406.60435098 239.29035955 401.57558101 239.30139574 396.54679871 239.31088257 C386.69394659 239.32750024 376.84111841 239.33299248 366.98825345 239.33410732 C358.97885666 239.33505752 350.96946777 239.33916637 342.96007347 239.34550858 C320.25217894 239.36312374 297.54430333 239.37234711 274.83640192 239.37084763 C273.61204212 239.37076772 272.38768232 239.3706878 271.1262207 239.37060547 C269.90036584 239.37052371 268.67451098 239.37044195 267.411509 239.37035771 C247.54765327 239.36954492 227.6838734 239.38868004 207.82003961 239.4168822 C187.42419731 239.44561116 167.02839201 239.45942246 146.63252896 239.45769465 C135.18177316 239.45703071 123.73109685 239.46252461 112.28035927 239.48405075 C102.53003155 239.50226276 92.77981935 239.50660974 83.02948198 239.4930319 C78.05596724 239.48650216 73.08267411 239.48638537 68.10918045 239.5037384 C63.55235059 239.5194739 58.99591799 239.51660055 54.43909778 239.49917014 C52.79440681 239.49610129 51.14968615 239.49972831 49.50503019 239.51089029 C34.98125489 239.60289809 24.15751444 236.80403679 13 227 C4.60055039 218.07071498 -0.33303578 207.86309868 -0.24050903 195.53384399 C-0.24221788 194.69567276 -0.24392673 193.85750153 -0.24568737 192.99393117 C-0.24897422 190.19329475 -0.23799183 187.39289941 -0.22705078 184.59228516 C-0.22648649 182.58157354 -0.22680357 180.57086152 -0.22793579 178.56015015 C-0.22850962 173.1060978 -0.21675037 167.65213342 -0.20278788 162.19810152 C-0.19028557 156.49660469 -0.18911041 150.79510584 -0.18673706 145.09359741 C-0.18052083 134.29899095 -0.16410804 123.50442499 -0.14403808 112.70983636 C-0.12168356 100.41973115 -0.11068677 88.12962401 -0.10064721 75.83950353 C-0.07974197 50.55964656 -0.04456317 25.27982555 0 0 Z " fill="#000000" transform="translate(15,242)"/>
<path d="M0 0 C0.69334946 -0.00686325 1.38669891 -0.0137265 2.10105896 -0.02079773 C4.38276917 -0.03903173 6.66378952 -0.03523331 8.94555664 -0.02954102 C10.53829674 -0.03410458 12.13103486 -0.03941067 13.72377014 -0.04542542 C17.05844126 -0.05434989 20.39287281 -0.0519412 23.72753906 -0.04199219 C27.99253259 -0.03050502 32.25669786 -0.05071278 36.5215826 -0.07990932 C39.809954 -0.09829109 43.09812765 -0.09797495 46.38653755 -0.0922718 C47.95855432 -0.09211882 49.53058469 -0.09814423 51.10255241 -0.11056328 C53.30456765 -0.12550931 55.50506229 -0.11477202 57.70703125 -0.09765625 C59.58303261 -0.097407 59.58303261 -0.097407 61.49693298 -0.09715271 C66.50582496 0.63663231 69.68289162 2.81354395 72.76586914 6.78295898 C74.85389971 11.53234376 74.53742246 16.32653425 73.91821289 21.40405273 C71.73806744 26.00658202 69.44202287 28.18439464 64.91821289 30.40405273 C61.62391663 30.79173279 61.62391663 30.79173279 57.83642578 30.80810547 C57.14307632 30.81496872 56.44972687 30.82183197 55.73536682 30.8289032 C53.45365661 30.84713719 51.17263626 30.84333878 48.89086914 30.83764648 C47.29812904 30.84221005 45.70539092 30.84751614 44.11265564 30.85353088 C40.77798452 30.86245536 37.44355297 30.86004667 34.10888672 30.85009766 C29.84389319 30.83861049 25.57972792 30.85881825 21.31484318 30.88801479 C18.02647178 30.90639656 14.73829813 30.90608042 11.44988823 30.90037727 C9.87787146 30.90022429 8.30584109 30.9062497 6.73387337 30.91866875 C4.53185813 30.93361478 2.3313635 30.92287749 0.12939453 30.90576172 C-1.12127304 30.90559555 -2.37194061 30.90542938 -3.6605072 30.90525818 C-8.66939918 30.17147316 -11.84646584 27.99456151 -14.92944336 24.02514648 C-17.01747392 19.27576171 -16.70099668 14.48157122 -16.08178711 9.40405273 C-12.59757623 2.04849643 -7.88405193 0.03408142 0 0 Z " fill="#000000" transform="translate(227.081787109375,300.595947265625)"/>
</svg>
